HIERARCHY
ROOT hips
{
	OFFSET -0.003675 0.299928 -0.021708
	CHANNELS 6 Xposition Yposition Zposition Xrotation Yrotation Zrotation
	JOINT LowerBack
	{
		OFFSET 0.000919 0.177588 0.009275
		CHANNELS 3 Xrotation Yrotation Zrotation
		JOINT spine
		{
			OFFSET 0.000919 0.177588 0.009275
			CHANNELS 3 Xrotation Yrotation Zrotation
			JOINT chest
			{
				OFFSET 0.000456 0.100015 0.004638
				CHANNELS 3 Xrotation Yrotation Zrotation
				JOINT neck
				{
					OFFSET 0.000456 0.100015 0.004638
					CHANNELS 3 Xrotation Yrotation Zrotation
					JOINT head
					{
						OFFSET 0.000924 0.155147 0.009274
						CHANNELS 6 Xposition Yposition Zposition Xrotation Yrotation Zrotation
						End Site
						{
							OFFSET 0.000000 0.153400 0.000000
						}
					}
				}
				JOINT shoulder.L
				{
					OFFSET 0.019937 0.078966 0.057518
					CHANNELS 6 Xposition Yposition Zposition Yrotation Xrotation Zrotation
					JOINT upper_arm.L
					{
						OFFSET 0.177024 -0.020465 -0.095062
						CHANNELS 6 Xposition Yposition Zposition Xrotation Yrotation Zrotation
						JOINT forearm.L
						{
							OFFSET 0.247100 -0.135500 -0.061800
							CHANNELS 3 Xrotation Yrotation Zrotation
							JOINT hand.L
							{
								OFFSET 0.217000 -0.143000 0.039300
								CHANNELS 3 Xrotation Yrotation Zrotation
								JOINT palm.01.L
								{
									OFFSET 0.021770 -0.038291 0.012954
									CHANNELS 6 Xposition Yposition Zposition Yrotation Xrotation Zrotation
									JOINT f_index.01.L
									{
										OFFSET 0.053215 -0.044137 0.008236
										CHANNELS 3 Xrotation Yrotation Zrotation
										JOINT f_index.02.L
										{
											OFFSET 0.036108 -0.024723 -0.010656
											CHANNELS 3 Xrotation Yrotation Zrotation
											JOINT f_index.03.L
											{
												OFFSET 0.021342 -0.014948 -0.010846
												CHANNELS 3 Xrotation Yrotation Zrotation
												End Site
												{
													OFFSET 0.015600 -0.009860 -0.013421
												}
											}
										}
									}
									JOINT thumb.01.L
									{
										OFFSET -0.009090 -0.002348 -0.024223
										CHANNELS 6 Xposition Yposition Zposition Xrotation Yrotation Zrotation
										JOINT thumb.02.L
										{
											OFFSET 0.019713 -0.035076 -0.011120
											CHANNELS 3 Xrotation Yrotation Zrotation
											JOINT thumb.03.L
											{
												OFFSET 0.024877 -0.021748 -0.005176
												CHANNELS 3 Xrotation Yrotation Zrotation
												End Site
												{
													OFFSET 0.016125 -0.013029 -0.001569
												}
											}
										}
									}
								}
								JOINT palm.02.L
								{
									OFFSET 0.032823 -0.025104 0.012281
									CHANNELS 6 Xposition Yposition Zposition Yrotation Xrotation Zrotation
									JOINT f_middle.01.L
									{
										OFFSET 0.055723 -0.038469 0.008037
										CHANNELS 3 Xrotation Yrotation Zrotation
										JOINT f_middle.02.L
										{
											OFFSET 0.038167 -0.027473 -0.015582
											CHANNELS 3 Xrotation Yrotation Zrotation
											JOINT f_middle.03.L
											{
												OFFSET 0.021707 -0.016587 -0.017037
												CHANNELS 3 Xrotation Yrotation Zrotation
												End Site
												{
													OFFSET 0.014112 -0.010584 -0.014294
												}
											}
										}
									}
								}
								JOINT palm.03.L
								{
									OFFSET 0.039230 -0.011402 0.008390
									CHANNELS 6 Xposition Yposition Zposition Yrotation Xrotation Zrotation
									JOINT f_ring.01.L
									{
										OFFSET 0.061796 -0.031470 0.007910
										CHANNELS 3 Xrotation Yrotation Zrotation
										JOINT f_ring.02.L
										{
											OFFSET 0.033092 -0.023401 -0.019127
											CHANNELS 3 Xrotation Yrotation Zrotation
											JOINT f_ring.03.L
											{
												OFFSET 0.021392 -0.015362 -0.017824
												CHANNELS 3 Xrotation Yrotation Zrotation
												End Site
												{
													OFFSET 0.008670 -0.007297 -0.014686
												}
											}
										}
									}
								}
								JOINT palm.04.L
								{
									OFFSET 0.043417 0.002450 0.002889
									CHANNELS 6 Xposition Yposition Zposition Yrotation Xrotation Zrotation
									JOINT f_pinky.01.L
									{
										OFFSET 0.069986 -0.026156 0.003627
										CHANNELS 3 Xrotation Yrotation Zrotation
										JOINT f_pinky.02.L
										{
											OFFSET 0.018520 -0.012813 -0.016429
											CHANNELS 3 Xrotation Yrotation Zrotation
											JOINT f_pinky.03.L
											{
												OFFSET 0.013822 -0.009796 -0.014947
												CHANNELS 3 Xrotation Yrotation Zrotation
												End Site
												{
													OFFSET 0.007238 -0.006103 -0.011657
												}
											}
										}
									}
								}
							}
						}
					}
				}
				JOINT shoulder.R
				{
					OFFSET -0.016662 0.078957 0.057696
					CHANNELS 6 Xposition Yposition Zposition Yrotation Xrotation Zrotation
					JOINT upper_arm.R
					{
						OFFSET -0.176972 -0.020537 -0.095144
						CHANNELS 6 Xposition Yposition Zposition Xrotation Yrotation Zrotation
						JOINT forearm.R
						{
							OFFSET -0.247100 -0.135500 -0.061800
							CHANNELS 3 Xrotation Yrotation Zrotation
							JOINT hand.R
							{
								OFFSET -0.217000 -0.143000 0.039300
								CHANNELS 3 Xrotation Yrotation Zrotation
								JOINT palm.01.R
								{
									OFFSET -0.021773 -0.038278 0.012988
									CHANNELS 6 Xposition Yposition Zposition Yrotation Xrotation Zrotation
									JOINT f_index.01.R
									{
										OFFSET -0.053212 -0.044139 0.008249
										CHANNELS 3 Xrotation Yrotation Zrotation
										JOINT f_index.02.R
										{
											OFFSET -0.036049 -0.024835 -0.010634
											CHANNELS 3 Xrotation Yrotation Zrotation
											JOINT f_index.03.R
											{
												OFFSET -0.021371 -0.014881 -0.010866
												CHANNELS 3 Xrotation Yrotation Zrotation
												End Site
												{
													OFFSET -0.015584 -0.009883 -0.013422
												}
											}
										}
									}
									JOINT thumb.01.R
									{
										OFFSET 0.009113 -0.002381 -0.024211
										CHANNELS 6 Xposition Yposition Zposition Xrotation Yrotation Zrotation
										JOINT thumb.02.R
										{
											OFFSET -0.019694 -0.035097 -0.011088
											CHANNELS 3 Xrotation Yrotation Zrotation
											JOINT thumb.03.R
											{
												OFFSET -0.024867 -0.021762 -0.005168
												CHANNELS 3 Xrotation Yrotation Zrotation
												End Site
												{
													OFFSET -0.016120 -0.013036 -0.001565
												}
											}
										}
									}
								}
								JOINT palm.02.R
								{
									OFFSET -0.032828 -0.025095 0.012286
									CHANNELS 6 Xposition Yposition Zposition Yrotation Xrotation Zrotation
									JOINT f_middle.01.R
									{
										OFFSET -0.055721 -0.038472 0.008040
										CHANNELS 3 Xrotation Yrotation Zrotation
										JOINT f_middle.02.R
										{
											OFFSET -0.038101 -0.027593 -0.015557
											CHANNELS 3 Xrotation Yrotation Zrotation
											JOINT f_middle.03.R
											{
												OFFSET -0.021730 -0.016530 -0.017054
												CHANNELS 3 Xrotation Yrotation Zrotation
												End Site
												{
													OFFSET -0.014096 -0.010608 -0.014293
												}
											}
										}
									}
								}
								JOINT palm.03.R
								{
									OFFSET -0.039192 -0.011488 0.008390
									CHANNELS 6 Xposition Yposition Zposition Yrotation Xrotation Zrotation
									JOINT f_ring.01.R
									{
										OFFSET -0.061839 -0.031387 0.007876
										CHANNELS 3 Xrotation Yrotation Zrotation
										JOINT f_ring.02.R
										{
											OFFSET -0.033068 -0.023437 -0.019125
											CHANNELS 3 Xrotation Yrotation Zrotation
											JOINT f_ring.03.R
											{
												OFFSET -0.021371 -0.015393 -0.017822
												CHANNELS 3 Xrotation Yrotation Zrotation
												End Site
												{
													OFFSET -0.008654 -0.007321 -0.014684
												}
											}
										}
									}
								}
								JOINT palm.04.R
								{
									OFFSET -0.043421 0.002443 0.002845
									CHANNELS 6 Xposition Yposition Zposition Yrotation Xrotation Zrotation
									JOINT f_pinky.01.R
									{
										OFFSET -0.069983 -0.026169 0.003599
										CHANNELS 3 Xrotation Yrotation Zrotation
										JOINT f_pinky.02.R
										{
											OFFSET -0.018501 -0.012842 -0.016428
											CHANNELS 3 Xrotation Yrotation Zrotation
											JOINT f_pinky.03.R
											{
												OFFSET -0.013806 -0.009821 -0.014946
												CHANNELS 3 Xrotation Yrotation Zrotation
												End Site
												{
													OFFSET -0.007226 -0.006121 -0.011655
												}
											}
										}
									}
								}
							}
						}
					}
				}
			}
		}
	}
	JOINT pelvis.L
	{
		OFFSET 0.000000 0.000000 0.000000
		CHANNELS 6 Xposition Yposition Zposition Xrotation Yrotation Zrotation
		JOINT thigh.L
		{
			OFFSET 0.101675 0.001054 -0.000000
			CHANNELS 3 Xrotation Yrotation Zrotation
			JOINT shin.L
			{
				OFFSET 0.000000 -0.534800 0.041000
				CHANNELS 3 Xrotation Yrotation Zrotation
				JOINT foot.L
				{
					OFFSET 0.000000 -0.452000 -0.044800
					CHANNELS 3 Xrotation Yrotation Zrotation
					JOINT toe.L
					{
						OFFSET -0.000000 -0.068500 0.109600
						CHANNELS 3 Xrotation Yrotation Zrotation
						End Site
						{
							OFFSET -0.000000 0.000000 0.067200
						}
					}
				}
				JOINT heel.L
				{
					OFFSET 0.000000 -0.452000 -0.044800
					CHANNELS 3 Xrotation Yrotation Zrotation
					JOINT heel.02.L
					{
						OFFSET -0.038000 -0.085200 0.016200
						CHANNELS 6 Xposition Yposition Zposition Xrotation Yrotation Zrotation
						End Site
						{
							OFFSET 0.080000 -0.000000 0.000000
						}
					}
				}
			}
		}
	}
	JOINT pelvis.R
	{
		OFFSET 0.000000 0.000000 0.000000
		CHANNELS 6 Xposition Yposition Zposition Xrotation Yrotation Zrotation
		JOINT thigh.R
		{
			OFFSET -0.094325 0.001054 0.000000
			CHANNELS 3 Xrotation Yrotation Zrotation
			JOINT shin.R
			{
				OFFSET 0.000000 -0.534800 0.041000
				CHANNELS 3 Xrotation Yrotation Zrotation
				JOINT foot.R
				{
					OFFSET 0.000000 -0.452000 -0.044800
					CHANNELS 3 Xrotation Yrotation Zrotation
					JOINT toe.R
					{
						OFFSET -0.000000 -0.068500 0.109600
						CHANNELS 3 Xrotation Yrotation Zrotation
						End Site
						{
							OFFSET -0.000000 0.000000 0.067200
						}
					}
				}
				JOINT heel.R
				{
					OFFSET 0.000000 -0.452000 -0.044800
					CHANNELS 3 Xrotation Yrotation Zrotation
					JOINT heel.02.R
					{
						OFFSET 0.038000 -0.085200 0.016200
						CHANNELS 6 Xposition Yposition Zposition Xrotation Yrotation Zrotation
						End Site
						{
							OFFSET -0.080000 0.000000 -0.000000
						}
					}
				}
			}
		}
	}
}
MOTION
Frames: 4
Frame Time: 0.041667
-0.003354 0.254958 -0.020724 3.611255 1.503376 1.753350 -0.000001 0.000000 -0.000000 -0.000000 0.000000 -0.000000 0.000000 0.000000 -0.000000 0.000000 0.000000 -0.000000 0.000924 0.155147 0.009274 5.377005 -0.005321 1.621644 0.019937 0.078966 0.057518 4.310450 3.179519 27.906512 0.177025 -0.020465 -0.095062 -3.177454 11.954644 -66.077825 -5.609823 -8.217217 -8.862990 0.000000 0.000002 0.000001 0.021770 -0.038291 0.012954 0.000001 -0.000001 -0.000000 -0.000001 -0.000002 0.000003 0.000002 0.000001 0.000005 0.000001 0.000002 -0.000003 -0.009090 -0.002348 -0.024223 -0.000001 -0.000003 0.000002 0.000001 -0.000000 -0.000002 0.000003 -0.000003 0.000003 0.032823 -0.025104 0.012281 -0.000000 0.000000 0.000004 -0.000001 -0.000001 0.000000 -0.000006 -0.000003 0.000003 0.000004 0.000001 0.000001 0.039230 -0.011402 0.008390 0.000001 -0.000001 0.000003 0.000004 0.000000 -0.000002 -0.000000 0.000001 0.000001 0.000005 -0.000004 0.000002 0.043417 0.002450 0.002889 0.000000 -0.000001 -0.000003 -0.000001 -0.000008 0.000002 -0.000000 -0.000003 0.000001 0.000003 0.000000 -0.000003 -0.016662 0.078957 0.057696 -2.401843 2.706238 -26.915146 -0.176972 -0.020537 -0.095144 -5.290667 -11.996366 62.346698 -3.134368 5.677200 7.845407 -0.000001 0.000001 0.000000 -0.021773 -0.038278 0.012988 0.000003 -0.000000 -0.000005 -0.000003 0.000001 0.000002 0.000001 -0.000000 -0.000008 -0.000000 0.000002 0.000007 0.009114 -0.002381 -0.024211 -0.000000 -0.000003 -0.000001 -0.000001 -0.000001 -0.000007 0.000001 0.000001 -0.000006 -0.032828 -0.025095 0.012286 0.000004 -0.000000 -0.000001 0.000001 0.000000 0.000004 -0.000000 0.000001 -0.000002 -0.000001 0.000003 -0.000002 -0.039192 -0.011488 0.008390 -0.000001 -0.000000 -0.000002 -0.000001 0.000002 0.000002 -0.000004 -0.000004 -0.000000 -0.000001 0.000005 0.000000 -0.043421 0.002443 0.002845 0.000003 -0.000001 -0.000001 -0.000003 0.000004 -0.000001 0.000000 -0.000003 -0.000003 0.000001 0.000001 -0.000000 0.000000 0.000000 -0.000000 -1.648077 0.041493 -1.518387 -7.779633 -0.157205 -1.264717 42.136800 0.333896 -3.368653 0.000000 -0.000000 0.000001 0.000000 0.000000 0.000000 0.000003 -0.000000 0.000000 -0.038000 -0.085200 0.016200 -0.000003 -0.000000 0.000000 0.000000 0.000000 -0.000000 -1.611406 0.040903 -0.284231 -1.103272 0.235076 2.621797 34.581777 -0.319447 3.225534 -0.000003 -0.000001 -0.000001 -0.000000 0.000000 0.000001 -0.000003 -0.000000 -0.000000 0.038000 -0.085200 0.016200 -0.000002 -0.000000 -0.000000 
-0.003430 0.255511 -0.020133 2.003860 1.980114 1.212674 0.000000 0.000000 -0.000000 0.000000 0.000000 0.000000 0.000000 0.000000 0.000000 0.000000 -0.000000 -0.000000 0.000924 0.155147 0.009274 6.138686 -0.006824 2.385576 0.019937 0.078966 0.057518 3.562901 3.088261 27.627540 0.177024 -0.020465 -0.095062 -2.711978 11.752187 -68.818336 -2.657182 -5.256438 -9.672703 0.000001 0.000000 0.000001 0.021770 -0.038291 0.012954 -0.000001 0.000001 -0.000001 -0.000001 -0.000000 -0.000000 0.000000 -0.000001 0.000005 -0.000001 -0.000000 -0.000003 -0.009090 -0.002348 -0.024224 -0.000000 -0.000001 0.000001 0.000001 0.000001 -0.000000 0.000002 -0.000001 -0.000002 0.032823 -0.025104 0.012281 -0.000002 0.000000 0.000002 -0.000001 0.000002 -0.000002 -0.000003 -0.000003 0.000008 0.000004 0.000003 0.000001 0.039230 -0.011402 0.008390 0.000001 0.000000 0.000001 -0.000001 0.000001 -0.000004 0.000001 0.000003 0.000001 -0.000003 -0.000002 0.000003 0.043417 0.002450 0.002889 0.000000 0.000001 -0.000005 0.000001 -0.000003 0.000003 -0.000001 0.000004 -0.000000 -0.000004 0.000000 -0.000000 -0.016662 0.078956 0.057696 -2.889810 2.579101 -25.971282 -0.176972 -0.020537 -0.095144 -4.169811 -11.866721 66.482835 -1.855358 4.486082 10.318122 0.000002 0.000001 -0.000002 -0.021773 -0.038278 0.012988 0.000002 0.000000 -0.000005 -0.000001 0.000004 0.000001 0.000003 -0.000000 -0.000003 0.000000 0.000000 0.000003 0.009114 -0.002381 -0.024211 0.000002 -0.000001 0.000001 0.000001 -0.000002 0.000000 0.000001 0.000000 -0.000003 -0.032828 -0.025095 0.012286 0.000001 -0.000001 -0.000003 -0.000001 0.000003 0.000001 0.000003 0.000001 -0.000002 -0.000004 0.000008 -0.000007 -0.039192 -0.011488 0.008390 0.000001 0.000003 -0.000005 0.000000 0.000005 0.000000 -0.000003 -0.000001 0.000002 -0.000004 -0.000003 0.000001 -0.043421 0.002443 0.002845 0.000000 -0.000001 -0.000001 -0.000005 0.000003 -0.000002 0.000000 0.000002 -0.000000 -0.000001 0.000002 -0.000002 -0.000000 0.000000 -0.000000 -1.627135 0.034820 -1.439939 -5.762392 -0.184411 -1.741198 40.886486 0.134205 -1.352063 0.000000 0.000000 0.000000 -0.000001 0.000001 -0.000000 0.000003 0.000000 -0.000000 -0.038000 -0.085200 0.016200 -0.000003 -0.000000 0.000000 -0.000000 0.000000 0.000000 -1.591124 0.034287 -0.205789 3.851600 0.363696 4.679770 28.125426 -0.065674 0.663356 0.000000 -0.000000 -0.000000 0.000004 -0.000001 0.000000 0.000002 -0.000000 -0.000000 0.038000 -0.085200 0.016200 -0.000003 0.000000 -0.000000 
-0.003609 0.255111 -0.019415 1.079525 2.841129 0.917265 0.000000 0.000000 -0.000000 -0.000000 -0.000000 0.000000 0.000000 -0.000000 0.000000 0.000000 0.000000 -0.000000 0.000924 0.155148 0.009274 7.011160 -0.008426 2.699764 0.019937 0.078966 0.057518 2.946312 2.828466 27.131204 0.177025 -0.020465 -0.095062 -2.490421 11.634184 -71.360771 0.192388 -2.266948 -9.084214 -0.000002 0.000002 -0.000003 0.021770 -0.038291 0.012954 0.000003 0.000002 0.000001 0.000001 -0.000002 0.000001 0.000003 0.000003 0.000003 0.000002 0.000002 0.000005 -0.009090 -0.002348 -0.024223 0.000001 -0.000001 -0.000003 0.000001 -0.000001 0.000003 0.000000 0.000000 -0.000001 0.032823 -0.025104 0.012281 0.000001 -0.000000 0.000007 0.000000 0.000002 -0.000002 -0.000001 0.000001 0.000003 -0.000000 -0.000003 0.000003 0.039230 -0.011402 0.008390 0.000003 -0.000000 0.000004 -0.000002 0.000001 0.000003 0.000001 0.000003 -0.000001 0.000002 -0.000004 0.000003 0.043417 0.002450 0.002889 0.000004 0.000001 0.000002 -0.000001 -0.000004 -0.000004 -0.000003 0.000001 -0.000001 0.000002 0.000000 -0.000001 -0.016662 0.078957 0.057696 -3.424437 2.480158 -25.449587 -0.176972 -0.020537 -0.095144 -4.037570 -11.709650 69.329166 -0.764698 3.426906 10.578173 0.000001 -0.000002 -0.000001 -0.021773 -0.038278 0.012988 -0.000003 0.000000 -0.000005 -0.000003 0.000004 -0.000003 -0.000002 -0.000000 -0.000006 -0.000001 0.000000 0.000004 0.009114 -0.002381 -0.024211 -0.000001 0.000001 -0.000006 -0.000001 -0.000002 -0.000003 -0.000001 -0.000000 -0.000006 -0.032828 -0.025095 0.012286 -0.000001 0.000001 -0.000003 -0.000000 0.000002 0.000001 -0.000003 0.000000 -0.000000 -0.000001 -0.000000 -0.000002 -0.039192 -0.011488 0.008390 -0.000001 0.000002 -0.000004 0.000001 0.000002 -0.000003 0.000002 -0.000004 -0.000000 -0.000002 0.000002 -0.000000 -0.043421 0.002443 0.002845 -0.000002 -0.000001 -0.000003 -0.000003 0.000003 -0.000002 0.000001 -0.000001 -0.000000 -0.000004 -0.000001 -0.000001 0.000000 0.000000 -0.000000 -1.628222 0.015033 -1.194803 -3.336386 -0.201889 -2.119138 36.992684 -0.103169 1.043057 -0.000005 0.000000 0.000000 -0.000003 -0.000000 -0.000000 -0.000003 0.000000 0.000000 -0.038000 -0.085200 0.016200 0.000001 -0.000000 0.000000 -0.000000 0.000000 0.000000 -1.592803 0.014661 0.039372 6.576611 0.462692 6.186170 23.365592 0.132564 -1.336925 0.000003 0.000000 -0.000000 0.000002 -0.000000 0.000000 0.000007 0.000000 0.000001 0.038000 -0.085200 0.016200 -0.000003 -0.000000 0.000000 
-0.003651 0.255141 -0.017572 1.120750 4.004765 1.288078 0.000000 0.000000 -0.000000 -0.000000 0.000001 0.000000 -0.000000 0.000000 0.000000 -0.000001 -0.000000 -0.000000 0.000924 0.155148 0.009274 7.939930 -0.009824 2.562654 0.019937 0.078966 0.057518 3.274038 2.984725 27.013130 0.177024 -0.020465 -0.095062 -1.397559 11.353608 -72.772264 0.820540 -1.742164 -9.833364 -0.000003 0.000000 -0.000004 0.021770 -0.038291 0.012954 0.000001 -0.000000 -0.000004 -0.000002 0.000000 -0.000000 -0.000000 0.000001 0.000007 0.000003 0.000002 0.000004 -0.009090 -0.002348 -0.024223 -0.000000 0.000000 -0.000003 -0.000000 0.000001 0.000003 -0.000001 -0.000000 -0.000002 0.032823 -0.025104 0.012281 0.000000 0.000001 0.000002 -0.000001 0.000003 -0.000005 -0.000002 0.000000 0.000001 -0.000005 0.000002 0.000004 0.039230 -0.011402 0.008390 0.000003 -0.000003 0.000001 0.000002 -0.000000 0.000001 -0.000002 0.000009 0.000003 0.000002 -0.000003 0.000005 0.043417 0.002450 0.002889 -0.000001 -0.000001 -0.000005 -0.000000 -0.000004 -0.000004 0.000000 0.000000 0.000001 0.000003 0.000000 -0.000003 -0.016662 0.078957 0.057696 -3.731828 2.699856 -25.531898 -0.176972 -0.020537 -0.095144 -3.083773 -11.472045 70.529367 -0.394482 3.105626 10.817299 0.000000 0.000001 -0.000004 -0.021773 -0.038278 0.012988 0.000002 -0.000000 -0.000003 -0.000001 0.000001 -0.000003 -0.000001 -0.000000 -0.000001 -0.000004 0.000002 0.000001 0.009113 -0.002381 -0.024211 0.000001 -0.000003 0.000002 -0.000001 -0.000002 -0.000003 0.000001 0.000000 -0.000006 -0.032828 -0.025095 0.012286 0.000003 0.000001 -0.000001 0.000001 0.000001 -0.000005 0.000001 0.000001 0.000001 -0.000000 -0.000000 0.000002 -0.039192 -0.011488 0.008390 0.000001 0.000000 0.000001 0.000000 0.000000 -0.000003 0.000003 -0.000004 -0.000000 -0.000003 0.000001 -0.000001 -0.043421 0.002443 0.002845 0.000000 0.000000 0.000000 -0.000003 0.000000 -0.000001 0.000003 0.000000 0.000000 -0.000002 0.000000 -0.000003 -0.000000 0.000000 0.000000 -1.601120 0.010247 -1.138769 2.572787 -0.202624 -2.499880 30.065110 -0.294309 2.972818 0.000002 0.000000 -0.000000 0.000003 0.000000 -0.000000 0.000003 0.000000 -0.000000 -0.038000 -0.085200 0.016200 0.000004 0.000000 -0.000000 -0.000000 0.000000 0.000000 -1.566431 0.009918 0.095395 8.915246 0.478432 6.570810 18.951127 0.218118 -2.200595 -0.000007 0.000000 -0.000001 -0.000001 -0.000000 0.000000 0.000000 0.000000 -0.000000 0.038000 -0.085200 0.016200 0.000000 0.000001 -0.000001 
